<?xml version="1.0" standalone="no"?><!DOCTYPE svg PUBLIC "-//W3C//DTD SVG 1.1//EN" "http://www.w3.org/Graphics/SVG/1.1/DTD/svg11.dtd"><svg height="1080" node-id="1" sillyvg="true" template-height="1080" template-width="1080" version="1.1" viewBox="0 0 1080 1080" width="1080" xmlns="http://www.w3.org/2000/svg" xmlns:xlink="http://www.w3.org/1999/xlink"><defs node-id="37"><clipPath id="clip-path" node-id="5"><path d="M 588.90 624.70 L 583.60 626.60 L 580.70 627.10 L 577.80 626.40 L 576.60 625.60 L 574.70 623.40 L 545.70 526.50 L 222.00 622.80 L 299.20 882.10 L 300.90 886.70 L 303.10 890.90 L 305.80 894.60 L 309.00 898.00 L 312.50 900.90 L 316.40 903.30 L 320.50 905.20 L 324.90 906.60 L 329.40 907.40 L 334.10 907.60 L 338.70 907.20 L 343.50 906.10 L 598.90 830.10 L 603.50 828.40 L 607.60 826.20 L 611.40 823.50 L 614.70 820.30 L 617.60 816.80 L 620.10 812.90 L 622.00 808.80 L 623.30 804.40 L 624.10 799.90 L 624.40 795.20 L 623.90 790.60 L 622.90 785.80 L 604.60 724.50 L 604.40 721.50 L 605.30 718.70 L 606.20 717.50 L 608.60 715.80 L 615.60 714.10 L 620.50 712.30 L 625.10 710.20 L 629.40 707.70 L 633.40 704.90 L 637.10 701.70 L 640.40 698.30 L 643.40 694.70 L 646.00 690.80 L 648.20 686.60 L 649.90 682.40 L 651.20 678.00 L 652.10 673.50 L 652.50 668.90 L 652.50 664.30 L 651.90 659.60 L 650.80 654.90 L 649.10 650.40 L 647.10 646.20 L 644.60 642.30 L 641.80 638.70 L 638.60 635.40 L 635.10 632.40 L 631.30 629.80 L 627.20 627.60 L 622.90 625.70 L 618.40 624.30 L 613.70 623.20 L 608.90 622.60 L 604.00 622.40 L 599.10 622.70 L 594.10 623.40 L 588.90 624.70 Z" fill="#000000" fill-rule="nonzero" node-id="40" stroke="none" target-height="381.09998" target-width="430.5" target-x="222" target-y="526.5"></path></clipPath><clipPath id="clip-path-2" node-id="7"><path d="M 458.40 233.00 L 168.80 319.10 L 164.20 320.90 L 160.10 323.10 L 156.30 325.80 L 152.90 329.00 L 150.10 332.50 L 147.60 336.30 L 145.70 340.50 L 144.40 344.80 L 143.50 349.40 L 143.30 354.00 L 143.70 358.70 L 144.80 363.50 L 222.00 622.80 L 333.10 589.80 L 335.80 589.60 L 338.40 590.50 L 339.50 591.30 L 341.00 593.50 L 342.70 599.80 L 344.40 604.80 L 346.50 609.40 L 349.00 613.70 L 351.80 617.60 L 355.00 621.40 L 358.40 624.70 L 362.10 627.60 L 366.00 630.20 L 370.10 632.40 L 374.40 634.20 L 378.70 635.50 L 383.30 636.40 L 387.90 636.80 L 392.40 636.70 L 397.10 636.10 L 401.80 635.00 L 406.40 633.40 L 410.60 631.30 L 414.50 628.90 L 418.10 626.00 L 421.40 622.80 L 424.30 619.30 L 426.90 615.50 L 429.20 611.40 L 431.00 607.10 L 432.50 602.70 L 433.50 598.00 L 434.20 593.10 L 434.40 588.30 L 434.10 583.30 L 433.30 578.30 L 432.10 573.20 L 430.00 567.00 L 430.10 564.30 L 430.60 563.00 L 432.20 560.90 L 434.60 559.60 L 545.70 526.60 Z" fill="#000000" fill-rule="nonzero" node-id="44" stroke="none" target-height="403.8" target-width="402.40002" target-x="143.3" target-y="233"></path></clipPath><clipPath id="clip-path-3" node-id="9"><path d="M 458.40 233.00 L 483.20 316.60 L 483.60 318.60 L 483.60 320.70 L 483.10 322.70 L 482.20 324.60 L 480.90 326.20 L 479.30 327.50 L 477.40 328.50 L 467.80 330.70 L 462.80 332.50 L 458.20 334.60 L 453.90 337.00 L 449.90 339.80 L 446.20 343.00 L 442.90 346.50 L 439.90 350.10 L 437.40 354.00 L 435.10 358.20 L 433.40 362.40 L 432.10 366.80 L 431.20 371.30 L 430.80 375.90 L 430.90 380.50 L 431.40 385.10 L 432.50 389.80 L 434.20 394.40 L 436.20 398.60 L 438.70 402.50 L 441.50 406.10 L 444.80 409.40 L 448.30 412.40 L 452.00 415.00 L 456.20 417.20 L 460.50 419.10 L 464.90 420.50 L 469.60 421.60 L 474.40 422.20 L 479.30 422.40 L 484.20 422.10 L 489.20 421.40 L 494.40 420.10 L 503.70 416.70 L 505.70 416.50 L 507.80 416.70 L 509.70 417.40 L 511.50 418.50 L 513.00 419.90 L 514.20 421.60 L 515.00 423.50 L 545.70 526.50 L 651.40 495.00 L 655.20 493.10 L 657.90 490.10 L 659.50 486.30 L 659.90 484.30 L 659.80 482.20 L 658.00 474.70 L 657.30 469.70 L 657.00 464.70 L 657.20 459.90 L 657.80 455.00 L 658.90 450.40 L 660.30 445.90 L 662.20 441.60 L 664.40 437.50 L 667.00 433.70 L 670.00 430.20 L 673.30 427.00 L 676.90 424.10 L 680.80 421.70 L 685.00 419.60 L 689.60 418.00 L 694.30 416.90 L 698.90 416.30 L 703.50 416.20 L 708.10 416.60 L 712.60 417.50 L 717.00 418.80 L 721.20 420.60 L 725.40 422.80 L 729.30 425.40 L 732.90 428.30 L 736.40 431.60 L 739.50 435.40 L 742.40 439.30 L 744.80 443.60 L 746.90 448.20 L 749.60 455.50 L 750.70 457.30 L 753.70 460.10 L 757.40 461.70 L 759.40 462.00 L 763.70 461.60 L 835.20 440.30 L 839.80 438.60 L 843.90 436.40 L 847.70 433.60 L 851.00 430.50 L 853.90 427.00 L 856.40 423.10 L 858.30 418.90 L 859.60 414.60 L 860.40 410.00 L 860.70 405.40 L 860.20 400.70 L 859.20 395.90 L 792.20 170.80 L 790.40 166.20 L 788.20 162.10 L 785.50 158.30 L 782.30 154.90 L 778.80 152.00 L 775.00 149.60 L 770.80 147.70 L 766.50 146.30 L 761.90 145.50 L 757.30 145.30 L 752.60 145.70 L 747.80 146.80 Z" fill="#000000" fill-rule="nonzero" node-id="48" stroke="none" target-height="381.2" target-width="429.90002" target-x="430.8" target-y="145.3"></path></clipPath></defs><g node-id="122"><path d="M 588.90 624.70 L 583.60 626.60 L 580.70 627.10 L 577.80 626.40 L 576.60 625.60 L 574.70 623.40 L 545.70 526.50 L 222.00 622.80 L 299.20 882.10 L 300.90 886.70 L 303.10 890.90 L 305.80 894.60 L 309.00 898.00 L 312.50 900.90 L 316.40 903.30 L 320.50 905.20 L 324.90 906.60 L 329.40 907.40 L 334.10 907.60 L 338.70 907.20 L 343.50 906.10 L 598.90 830.10 L 603.50 828.40 L 607.60 826.20 L 611.40 823.50 L 614.70 820.30 L 617.60 816.80 L 620.10 812.90 L 622.00 808.80 L 623.30 804.40 L 624.10 799.90 L 624.40 795.20 L 623.90 790.60 L 622.90 785.80 L 604.60 724.50 L 604.40 721.50 L 605.30 718.70 L 606.20 717.50 L 608.60 715.80 L 615.60 714.10 L 620.50 712.30 L 625.10 710.20 L 629.40 707.70 L 633.40 704.90 L 637.10 701.70 L 640.40 698.30 L 643.40 694.70 L 646.00 690.80 L 648.20 686.60 L 649.90 682.40 L 651.20 678.00 L 652.10 673.50 L 652.50 668.90 L 652.50 664.30 L 651.90 659.60 L 650.80 654.90 L 649.10 650.40 L 647.10 646.20 L 644.60 642.30 L 641.80 638.70 L 638.60 635.40 L 635.10 632.40 L 631.30 629.80 L 627.20 627.60 L 622.90 625.70 L 618.40 624.30 L 613.70 623.20 L 608.90 622.60 L 604.00 622.40 L 599.10 622.70 L 594.10 623.40 L 588.90 624.70 Z" fill="#99adf9" fill-rule="nonzero" group-id="1" node-id="55" stroke="none" target-height="381.09998" target-width="430.5" target-x="222" target-y="526.5"></path><g node-id="123"><g clip-path="url(#clip-path)" group-id="1,2" node-id="59"><path d="M 502.40 868.30 L 484.20 873.00 L 453.10 880.20 L 427.70 885.20 L 401.20 889.40 L 379.60 891.60 L 363.90 892.10 L 356.30 891.90 L 349.60 891.30 L 343.70 890.40 L 339.20 889.40 L 335.40 888.10 L 332.20 886.60 L 329.60 884.90 L 321.60 878.30 L 315.10 871.30 L 309.40 863.20 L 305.50 856.40 L 301.30 848.10 L 280.70 801.40 L 264.80 766.60 L 265.40 784.20 L 266.20 793.90 L 268.00 808.30 L 270.30 823.40 L 273.10 838.40 L 279.60 868.00 L 286.50 895.40 L 295.70 927.70 L 301.50 946.20 Z" fill="#99adf9" fill-opacity="0.25" fill-rule="nonzero" group-id="1,2,7" node-id="61" stroke="none" target-height="179.60004" target-width="237.6" target-x="264.8" target-y="766.6"></path></g></g><g node-id="124"><path d="M 342.70 599.70 L 345.60 609.80 L 347.30 614.50 L 352.40 625.30 L 358.40 634.60 L 364.30 641.30 L 367.70 644.30 L 371.40 647.00 L 375.40 649.30 L 379.70 651.10 L 384.30 652.30 L 389.40 653.10 L 393.20 653.20 L 401.80 652.20 L 406.60 651.00 L 411.20 649.40 L 418.90 645.60 L 422.00 643.40 L 425.90 640.00 L 429.10 636.40 L 431.70 632.50 L 433.80 628.40 L 435.40 624.20 L 436.60 619.80 L 437.90 610.90 L 437.80 599.90 L 436.20 588.00 L 435.10 583.20 L 432.00 573.10 Z" fill="#99adf9" fill-opacity="0.25" fill-rule="nonzero" group-id="1,3" node-id="67" stroke="none" target-height="80.10004" target-width="95.19998" target-x="342.7" target-y="573.1"></path></g><path d="M 458.40 233.00 L 168.80 319.10 L 164.20 320.90 L 160.10 323.10 L 156.30 325.80 L 152.90 329.00 L 150.10 332.50 L 147.60 336.30 L 145.70 340.50 L 144.40 344.80 L 143.50 349.40 L 143.30 354.00 L 143.70 358.70 L 144.80 363.50 L 222.00 622.80 L 333.10 589.80 L 335.80 589.60 L 338.40 590.50 L 339.50 591.30 L 341.00 593.50 L 342.70 599.80 L 344.40 604.80 L 346.50 609.40 L 349.00 613.70 L 351.80 617.60 L 355.00 621.40 L 358.40 624.70 L 362.10 627.60 L 366.00 630.20 L 370.10 632.40 L 374.40 634.20 L 378.70 635.50 L 383.30 636.40 L 387.90 636.80 L 392.40 636.70 L 397.10 636.10 L 401.80 635.00 L 406.40 633.40 L 410.60 631.30 L 414.50 628.90 L 418.10 626.00 L 421.40 622.80 L 424.30 619.30 L 426.90 615.50 L 429.20 611.40 L 431.00 607.10 L 432.50 602.70 L 433.50 598.00 L 434.20 593.10 L 434.40 588.30 L 434.10 583.30 L 433.30 578.30 L 432.10 573.20 L 430.00 567.00 L 430.10 564.30 L 430.60 563.00 L 432.20 560.90 L 434.60 559.60 L 545.70 526.60 Z" fill="#fec272" fill-rule="nonzero" group-id="1" node-id="70" stroke="none" target-height="403.8" target-width="402.40002" target-x="143.3" target-y="233"></path><g node-id="125"><g clip-path="url(#clip-path-2)" group-id="1,4" node-id="74"><path d="M 185.10 517.70 L 180.30 499.50 L 173.10 468.50 L 168.10 443.10 L 164.00 416.50 L 161.80 395.00 L 161.20 379.30 L 161.40 371.70 L 162.00 365.00 L 162.90 359.10 L 164.00 354.60 L 165.30 350.80 L 166.80 347.60 L 168.40 344.90 L 176.30 335.60 L 185.60 327.10 L 192.40 322.10 L 199.70 317.30 L 207.70 312.70 L 224.40 304.70 L 242.90 297.60 L 262.80 291.20 L 243.00 291.70 L 232.70 292.50 L 217.40 294.00 L 187.10 298.50 L 173.00 301.10 L 147.00 306.60 L 126.10 311.70 L 107.10 316.80 Z" fill="#fec272" fill-opacity="0.52" fill-rule="nonzero" group-id="1,4,8" node-id="76" stroke="none" target-height="226.5" target-width="155.69998" target-x="107.1" target-y="291.2"></path></g></g><path d="M 458.40 233.00 L 483.20 316.60 L 483.60 318.60 L 483.60 320.70 L 483.10 322.70 L 482.20 324.60 L 480.90 326.20 L 479.30 327.50 L 477.40 328.50 L 467.80 330.70 L 462.80 332.50 L 458.20 334.60 L 453.90 337.00 L 449.90 339.80 L 446.20 343.00 L 442.90 346.50 L 439.90 350.10 L 437.40 354.00 L 435.10 358.20 L 433.40 362.40 L 432.10 366.80 L 431.20 371.30 L 430.80 375.90 L 430.90 380.50 L 431.40 385.10 L 432.50 389.80 L 434.20 394.40 L 436.20 398.60 L 438.70 402.50 L 441.50 406.10 L 444.80 409.40 L 448.30 412.40 L 452.00 415.00 L 456.20 417.20 L 460.50 419.10 L 464.90 420.50 L 469.60 421.60 L 474.40 422.20 L 479.30 422.40 L 484.20 422.10 L 489.20 421.40 L 494.40 420.10 L 503.70 416.70 L 505.70 416.50 L 507.80 416.70 L 509.70 417.40 L 511.50 418.50 L 513.00 419.90 L 514.20 421.60 L 515.00 423.50 L 545.70 526.50 L 651.40 495.00 L 655.20 493.10 L 657.90 490.10 L 659.50 486.30 L 659.90 484.30 L 659.80 482.20 L 658.00 474.70 L 657.30 469.70 L 657.00 464.70 L 657.20 459.90 L 657.80 455.00 L 658.90 450.40 L 660.30 445.90 L 662.20 441.60 L 664.40 437.50 L 667.00 433.70 L 670.00 430.20 L 673.30 427.00 L 676.90 424.10 L 680.80 421.70 L 685.00 419.60 L 689.60 418.00 L 694.30 416.90 L 698.90 416.30 L 703.50 416.20 L 708.10 416.60 L 712.60 417.50 L 717.00 418.80 L 721.20 420.60 L 725.40 422.80 L 729.30 425.40 L 732.90 428.30 L 736.40 431.60 L 739.50 435.40 L 742.40 439.30 L 744.80 443.60 L 746.90 448.20 L 749.60 455.50 L 750.70 457.30 L 753.70 460.10 L 757.40 461.70 L 759.40 462.00 L 763.70 461.60 L 835.20 440.30 L 839.80 438.60 L 843.90 436.40 L 847.70 433.60 L 851.00 430.50 L 853.90 427.00 L 856.40 423.10 L 858.30 418.90 L 859.60 414.60 L 860.40 410.00 L 860.70 405.40 L 860.20 400.70 L 859.20 395.90 L 792.20 170.80 L 790.40 166.20 L 788.20 162.10 L 785.50 158.30 L 782.30 154.90 L 778.80 152.00 L 775.00 149.60 L 770.80 147.70 L 766.50 146.30 L 761.90 145.50 L 757.30 145.30 L 752.60 145.70 L 747.80 146.80 Z" fill="#ff97c9" fill-rule="nonzero" group-id="1" node-id="80" stroke="none" target-height="381.2" target-width="429.90002" target-x="430.8" target-y="145.3"></path><g node-id="126"><g clip-path="url(#clip-path-3)" group-id="1,5" node-id="82"><path d="M 467.80 330.70 L 463.70 333.40 L 460.90 335.80 L 458.10 338.60 L 455.10 342.30 L 451.70 348.10 L 449.10 355.30 L 448.30 359.40 L 447.90 364.00 L 448.00 368.60 L 448.70 373.70 L 450.10 379.40 L 452.40 386.10 L 454.90 391.80 L 457.60 396.50 L 460.80 401.00 L 464.00 404.80 L 467.40 407.90 L 471.00 410.60 L 478.30 414.80 L 483.90 417.00 L 489.30 418.60 L 499.50 420.70 L 493.70 424.60 L 490.40 426.10 L 486.70 427.30 L 481.70 428.50 L 476.20 429.20 L 470.40 429.60 L 458.40 429.20 L 442.80 427.10 L 424.60 423.10 L 408.60 418.50 L 388.70 411.50 L 420.00 327.40 Z" fill="#ff97c9" fill-opacity="0.19" fill-rule="nonzero" group-id="1,5,9" node-id="86" stroke="none" target-height="102.20001" target-width="110.79999" target-x="388.7" target-y="327.4"></path><path d="M 838.70 327.00 L 832.80 309.10 L 821.80 279.20 L 812.10 255.20 L 801.10 230.70 L 791.10 211.50 L 783.00 198.00 L 778.70 191.80 L 774.50 186.50 L 770.50 182.00 L 767.20 178.80 L 764.10 176.40 L 761.10 174.50 L 758.20 173.20 L 750.40 170.50 L 742.10 168.20 L 733.00 166.10 L 723.90 164.50 L 714.40 163.40 L 704.40 162.60 L 694.50 162.40 L 684.30 162.70 L 674.00 163.50 L 663.70 164.90 L 653.50 167.00 L 643.20 169.70 L 651.50 164.50 L 660.20 159.60 L 669.40 154.90 L 688.30 146.40 L 712.50 137.40 L 726.50 132.80 L 752.60 125.40 L 774.20 120.20 L 794.20 116.20 Z" fill="#ff97c9" fill-opacity="0.19" fill-rule="nonzero" group-id="1,5,10" node-id="91" stroke="none" target-height="210.8" target-width="195.5" target-x="643.2" target-y="116.2"></path></g></g><path d="M 277.60 431.80 L 277.30 435.00 L 276.50 437.80 L 275.20 440.50 L 273.50 442.90 L 271.50 444.90 L 269.10 446.60 L 266.40 447.90 L 263.60 448.70 L 260.40 449.00 L 257.30 448.70 L 254.50 447.90 L 251.80 446.60 L 249.40 444.90 L 247.40 442.90 L 245.70 440.50 L 244.40 437.80 L 243.60 435.00 L 243.30 431.80 L 243.60 428.70 L 244.40 425.80 L 245.70 423.20 L 247.40 420.80 L 249.40 418.70 L 251.80 417.00 L 254.50 415.80 L 257.30 415.00 L 260.40 414.70 L 263.60 415.00 L 266.40 415.80 L 269.10 417.00 L 271.50 418.70 L 273.50 420.80 L 275.20 423.20 L 276.50 425.80 L 277.30 428.70 L 277.60 431.80 Z" fill="#1c3177" fill-rule="nonzero" group-id="1" node-id="95" stroke="none" target-height="34.299988" target-width="34.300003" target-x="243.3" target-y="414.7"></path><path d="M 404.60 394.10 L 404.30 397.20 L 403.50 400.00 L 402.20 402.70 L 400.50 405.10 L 398.50 407.10 L 396.10 408.80 L 393.40 410.10 L 390.60 410.90 L 387.40 411.20 L 384.30 410.90 L 381.40 410.10 L 378.80 408.80 L 376.40 407.10 L 374.30 405.10 L 372.60 402.70 L 371.40 400.00 L 370.60 397.20 L 370.30 394.10 L 370.60 390.90 L 371.40 388.10 L 372.60 385.40 L 374.30 383.00 L 376.40 381.00 L 378.80 379.30 L 381.40 378.00 L 384.30 377.20 L 387.40 376.90 L 390.60 377.20 L 393.40 378.00 L 396.10 379.30 L 398.50 381.00 L 400.50 383.00 L 402.20 385.40 L 403.50 388.10 L 404.30 390.90 L 404.60 394.10 Z" fill="#1c3177" fill-rule="nonzero" group-id="1" node-id="97" stroke="none" target-height="34.30002" target-width="34.30002" target-x="370.3" target-y="376.9"></path><path d="M 314.60 453.00 L 315.50 448.70 L 316.80 445.80 L 319.50 441.90 L 321.60 439.80 L 324.00 438.00 L 327.00 436.40 L 330.80 435.00 L 336.70 433.90 L 339.20 433.90 L 342.70 434.30 L 345.60 435.20 L 348.20 436.50 L 351.80 439.20 L 353.70 441.40" fill="none" group-id="1" node-id="99" stroke="#1c3177" stroke-linecap="round" stroke-width="9" target-height="19.100006" target-width="39.100006" target-x="314.6" target-y="433.9"></path><path d="M 384.10 729.70 L 383.80 732.80 L 383.00 735.70 L 381.70 738.40 L 380.00 740.80 L 378.00 742.80 L 375.60 744.50 L 372.90 745.80 L 370.10 746.50 L 367.00 746.80 L 363.80 746.50 L 361.00 745.80 L 358.30 744.50 L 355.90 742.80 L 353.90 740.80 L 352.20 738.40 L 350.90 735.70 L 350.10 732.80 L 349.80 729.70 L 350.10 726.60 L 350.90 723.70 L 352.20 721.10 L 353.90 718.70 L 355.90 716.60 L 358.30 714.90 L 361.00 713.70 L 363.80 712.90 L 367.00 712.60 L 370.10 712.90 L 372.90 713.70 L 375.60 714.90 L 378.00 716.60 L 380.00 718.70 L 381.70 721.10 L 383.00 723.70 L 383.80 726.60 L 384.10 729.70 Z" fill="#1c3177" fill-rule="nonzero" group-id="1" node-id="101" stroke="none" target-height="34.200012" target-width="34.30002" target-x="349.8" target-y="712.6"></path><path d="M 511.10 691.90 L 510.80 695.00 L 510.00 697.90 L 508.70 700.60 L 507.00 703.00 L 505.00 705.00 L 502.60 706.70 L 499.90 708.00 L 497.10 708.70 L 493.90 709.00 L 490.80 708.70 L 488.00 708.00 L 485.30 706.70 L 482.90 705.00 L 480.90 703.00 L 479.20 700.60 L 477.90 697.90 L 477.10 695.00 L 476.80 691.90 L 477.10 688.80 L 477.90 685.90 L 479.20 683.30 L 480.90 680.90 L 482.90 678.80 L 485.30 677.10 L 488.00 675.90 L 490.80 675.10 L 493.90 674.80 L 497.10 675.10 L 499.90 675.90 L 502.60 677.10 L 505.00 678.80 L 507.00 680.90 L 508.70 683.30 L 510.00 685.90 L 510.80 688.80 L 511.10 691.90 Z" fill="#1c3177" fill-rule="nonzero" group-id="1" node-id="103" stroke="none" target-height="34.200012" target-width="34.30002" target-x="476.8" target-y="674.8"></path><path d="M 605.60 329.10 L 606.10 332.10 L 606.00 334.60 L 605.40 336.70 L 604.20 338.70 L 602.60 340.40 L 600.50 341.90 L 596.90 343.70 L 592.50 345.30 L 588.00 346.40 L 583.90 346.80 L 581.30 346.70 L 579.10 346.10 L 577.00 345.20 L 575.40 343.80 L 573.90 341.70 L 572.70 338.90 L 572.10 335.90 L 571.90 332.90 L 572.30 329.90 L 573.20 327.10 L 574.60 324.40 L 576.50 322.00 L 578.80 319.90 L 581.40 318.40 L 584.20 317.30 L 587.10 316.70 L 590.10 316.60 L 593.10 317.00 L 596.10 318.10 L 598.70 319.50 L 601.00 321.40 L 603.00 323.70 L 604.50 326.20 L 605.60 329.10 Z" fill="#1c3177" fill-rule="nonzero" group-id="1" node-id="105" stroke="none" target-height="30.199982" target-width="34.19995" target-x="571.9" target-y="316.6"></path><path d="M 732.60 291.30 L 733.10 294.30 L 733.00 296.80 L 732.40 299.00 L 731.20 300.90 L 729.60 302.60 L 727.50 304.10 L 723.90 305.90 L 719.50 307.50 L 715.00 308.60 L 710.90 309.00 L 708.30 308.90 L 706.00 308.40 L 704.00 307.40 L 702.30 306.00 L 700.90 303.90 L 699.70 301.10 L 699.10 298.10 L 698.90 295.10 L 699.30 292.10 L 700.20 289.30 L 701.60 286.60 L 703.50 284.20 L 705.80 282.10 L 708.40 280.60 L 711.10 279.50 L 714.10 278.90 L 717.10 278.80 L 720.10 279.30 L 723.10 280.30 L 725.70 281.70 L 728.00 283.60 L 729.90 285.90 L 731.50 288.40 L 732.60 291.30 Z" fill="#1c3177" fill-rule="nonzero" group-id="1" node-id="107" stroke="none" target-height="30.200012" target-width="34.19995" target-x="698.9" target-y="278.8"></path><path d="M 690.90 342.80 L 690.50 344.90 L 689.70 346.50 L 688.60 347.70 L 685.40 349.70 L 679.50 351.40 L 664.60 355.10 L 644.60 362.40 L 640.90 362.50 L 639.20 362.00 L 637.50 360.90 L 635.90 359.20 L 634.60 357.20 L 633.80 355.20 L 633.50 353.10 L 633.60 350.90 L 634.30 348.00 L 635.60 345.00 L 637.60 342.00 L 640.00 339.20 L 642.80 336.60 L 646.00 334.10 L 649.40 332.00 L 653.00 330.20 L 656.80 328.90 L 660.70 328.00 L 664.60 327.50 L 668.60 327.40 L 672.70 327.70 L 676.40 328.40 L 679.90 329.40 L 683.20 330.90 L 685.90 332.60 L 688.10 334.60 L 689.40 336.40 L 690.30 338.40 L 690.80 340.50 L 690.90 342.80 Z" fill="#f774b9" fill-rule="nonzero" group-id="1" node-id="109" stroke="none" target-height="35.100006" target-width="57.400024" target-x="633.5" target-y="327.4"></path><g node-id="127"><path d="M 406.70 745.10 L 468.10 726.80 L 470.20 726.40 L 472.40 726.40 L 474.50 726.80 L 476.50 727.70 L 478.30 728.90 L 479.80 730.40 L 481.00 732.20 L 481.80 734.20 L 482.20 736.40 L 482.20 738.50 L 481.80 740.60 L 480.90 742.60 L 479.70 744.40 L 478.20 745.90 L 476.40 747.10 L 474.40 747.90 L 413.00 766.20 L 410.90 766.60 L 408.70 766.60 L 406.60 766.20 L 404.60 765.30 L 402.80 764.10 L 401.30 762.60 L 400.10 760.80 L 399.30 758.80 L 398.90 756.60 L 398.90 754.50 L 399.30 752.40 L 400.20 750.40 L 401.40 748.60 L 402.90 747.10 L 404.70 745.90 L 406.70 745.10 Z" fill="#ffffff" fill-rule="nonzero" group-id="1,6" node-id="113" stroke="none" target-height="40.19995" target-width="83.30002" target-x="398.9" target-y="726.4"></path></g><path d="M 744.10 681.80 L 761.10 712.70" fill="none" group-id="1" node-id="116" stroke="#1c3177" stroke-linecap="round" stroke-width="12" target-height="30.900024" target-width="17" target-x="744.1" target-y="681.8"></path><path d="M 780.30 575.80 L 812.30 560.90" fill="none" group-id="1" node-id="118" stroke="#1c3177" stroke-linecap="round" stroke-width="12" target-height="14.899963" target-width="32" target-x="780.3" target-y="560.9"></path><path d="M 778.30 633.00 L 819.60 646.50" fill="none" group-id="1" node-id="120" stroke="#1c3177" stroke-linecap="round" stroke-width="12" target-height="13.5" target-width="41.299988" target-x="778.3" target-y="633"></path></g></svg>
