<?xml version="1.0" standalone="no"?><!DOCTYPE svg PUBLIC "-//W3C//DTD SVG 1.1//EN" "http://www.w3.org/Graphics/SVG/1.1/DTD/svg11.dtd"><svg t="1683003273147" class="icon" viewBox="0 0 1024 1024" version="1.1" xmlns="http://www.w3.org/2000/svg" p-id="6604" xmlns:xlink="http://www.w3.org/1999/xlink" width="200" height="200"><path d="M928 64H160a32 32 0 0 0-32 32v256a32 32 0 0 0 32 32h224v544a32 32 0 0 0 32 32h256a32 32 0 0 0 32-32V384h224a32 32 0 0 0 32-32V96a32 32 0 0 0-32-32z m-32 64v64H192v-64zM448 384h64v512h-64z m192 512h-64V352a32 32 0 0 0-32-32H192v-64h384a64.07 64.07 0 0 1 64 64z m64-576a127.23 127.23 0 0 0-17.18-64H896v64z" fill="#5C5C66" p-id="6605"></path></svg>
