<?xml version="1.0" standalone="no"?><!DOCTYPE svg PUBLIC "-//W3C//DTD SVG 1.1//EN" "http://www.w3.org/Graphics/SVG/1.1/DTD/svg11.dtd"><svg height="1024" node-id="1" sillyvg="true" template-height="1024" template-width="1720" version="1.1" viewBox="0 0 1720 1024" width="1720" xmlns="http://www.w3.org/2000/svg" xmlns:xlink="http://www.w3.org/1999/xlink"><defs node-id="48"></defs><path d="M 317.32 123.17 L 1406.04 123.17 C 1419.82 123.17 1431.09 134.44 1431.09 148.22 L 1431.09 883.08 C 1431.09 896.86 1419.82 908.13 1406.04 908.13 L 317.32 908.13 C 303.55 908.13 292.27 896.86 292.27 883.08 L 292.27 148.22 C 292.27 134.44 303.55 123.17 317.32 123.17 Z" fill="#ffffff" fill-rule="nonzero" node-id="50" stroke="#000000" stroke-linecap="butt" stroke-width="14" target-height="784.962" target-width="1138.8169" target-x="292.273" target-y="123.172"></path><path d="M 304.80 801.66 L 1413.35 801.66 C 1420.24 801.66 1425.88 807.30 1425.88 814.19 L 1425.88 890.39 C 1425.88 897.28 1420.24 902.92 1413.35 902.92 L 304.80 902.92 C 297.91 902.92 292.27 897.28 292.27 890.39 L 292.27 814.19 C 292.27 807.30 297.91 801.66 304.80 801.66 Z" fill="#315bf4" fill-rule="nonzero" node-id="52" stroke="none" target-height="101.252014" target-width="1133.6069" target-x="292.273" target-y="801.664"></path><path d="M 390.39 205.63 L 791.23 205.63 C 798.12 205.63 803.75 211.27 803.75 218.16 L 803.75 406.05 C 803.75 412.94 798.12 418.58 791.23 418.58 L 390.39 418.58 C 383.50 418.58 377.87 412.94 377.87 406.05 L 377.87 218.16 C 377.87 211.27 383.50 205.63 390.39 205.63 Z" fill="none" node-id="54" stroke="#d2e9fe" stroke-linecap="butt" stroke-width="10" target-height="212.942" target-width="425.88397" target-x="377.867" target-y="205.635"></path><path d="M 437.37 267.22 C 444.86 267.22 450.94 261.15 450.94 253.65 C 450.94 246.16 444.86 240.08 437.37 240.08 C 429.87 240.08 423.80 246.16 423.80 253.65 C 423.80 261.15 429.87 267.22 437.37 267.22 Z" fill="#ff3f08" fill-rule="nonzero" node-id="56" stroke="none" target-height="27.139984" target-width="27.140015" target-x="423.796" target-y="240.082"></path><path d="M 482.25 267.22 C 489.75 267.22 495.82 261.15 495.82 253.65 C 495.82 246.16 489.75 240.08 482.25 240.08 C 474.76 240.08 468.68 246.16 468.68 253.65 C 468.68 261.15 474.76 267.22 482.25 267.22 Z" fill="#ff3f08" fill-rule="nonzero" node-id="58" stroke="none" target-height="27.139984" target-width="27.140015" target-x="468.681" target-y="240.082"></path><path d="M 527.13 267.22 C 534.63 267.22 540.71 261.15 540.71 253.65 C 540.71 246.16 534.63 240.08 527.13 240.08 C 519.64 240.08 513.57 246.16 513.57 253.65 C 513.57 261.15 519.64 267.22 527.13 267.22 Z" fill="#ff3f08" fill-rule="nonzero" node-id="60" stroke="none" target-height="27.139984" target-width="27.139038" target-x="513.566" target-y="240.082"></path><path d="M 432.15 299.58 L 732.77 299.58 C 737.36 299.58 741.12 303.34 741.12 307.93 C 741.12 312.52 737.36 316.28 732.77 316.28 L 432.15 316.28 C 427.55 316.28 423.80 312.52 423.80 307.93 C 423.80 303.34 427.55 299.58 432.15 299.58 Z" fill="#315bf4" fill-rule="nonzero" node-id="62" stroke="none" target-height="16.70102" target-width="317.32498" target-x="423.796" target-y="299.58"></path><path d="M 432.15 350.73 L 553.23 350.73 C 557.82 350.73 561.58 354.49 561.58 359.08 C 561.58 363.67 557.82 367.43 553.23 367.43 L 432.15 367.43 C 427.55 367.43 423.80 363.67 423.80 359.08 C 423.80 354.49 427.55 350.73 432.15 350.73 Z" fill="#315bf4" fill-rule="nonzero" node-id="64" stroke="none" target-height="16.700989" target-width="137.78598" target-x="423.796" target-y="350.729"></path><path d="M 979.12 687.89 C 1001.60 687.89 1019.82 669.66 1019.82 647.18 C 1019.82 624.69 1001.60 606.47 979.12 606.47 C 956.63 606.47 938.41 624.69 938.41 647.18 C 938.41 669.66 956.63 687.89 979.12 687.89 Z" fill="#ff3f08" fill-rule="nonzero" node-id="66" stroke="none" target-height="81.41901" target-width="81.414" target-x="938.406" target-y="606.467"></path><path d="M 1148.22 687.89 C 1170.70 687.89 1188.93 669.66 1188.93 647.18 C 1188.93 624.69 1170.70 606.47 1148.22 606.47 C 1125.73 606.47 1107.51 624.69 1107.51 647.18 C 1107.51 669.66 1125.73 687.89 1148.22 687.89 Z" fill="#ff3f08" fill-rule="nonzero" node-id="68" stroke="none" target-height="81.41901" target-width="81.420044" target-x="1107.51" target-y="606.467"></path><path d="M 1253.64 622.12 L 1363.25 622.12 C 1368.41 622.12 1372.64 626.35 1372.64 631.52 C 1372.64 636.69 1368.41 640.91 1363.25 640.91 L 1253.64 640.91 C 1248.48 640.91 1244.25 636.69 1244.25 631.52 C 1244.25 626.35 1248.48 622.12 1253.64 622.12 Z" fill="#315bf4" fill-rule="nonzero" node-id="70" stroke="none" target-height="18.789001" target-width="128.39001" target-x="1244.25" target-y="622.125"></path><path d="M 1310.01 670.14 L 1363.25 670.14 C 1368.41 670.14 1372.64 674.37 1372.64 679.53 C 1372.64 684.70 1368.41 688.93 1363.25 688.93 L 1310.01 688.93 C 1304.84 688.93 1300.62 684.70 1300.62 679.53 C 1300.62 674.37 1304.84 670.14 1310.01 670.14 Z" fill="#315bf4" fill-rule="nonzero" node-id="72" stroke="none" target-height="18.789001" target-width="72.02002" target-x="1300.62" target-y="670.139"></path><path d="M 861.16 874.73 C 875.00 874.73 886.21 863.52 886.21 849.68 C 886.21 835.85 875.00 824.63 861.16 824.63 C 847.33 824.63 836.11 835.85 836.11 849.68 C 836.11 863.52 847.33 874.73 861.16 874.73 Z" fill="#ffffff" fill-rule="nonzero" node-id="74" stroke="none" target-height="50.103943" target-width="50.104004" target-x="836.11" target-y="824.629"></path><path d="M 916.14 508.35 C 908.85 508.35 902.91 502.41 902.91 495.12 L 902.91 20.53 C 902.91 13.24 908.85 7.30 916.14 7.30 L 1678.83 7.30 C 1686.12 7.30 1692.05 13.24 1692.05 20.53 L 1692.05 495.12 C 1692.05 502.41 1686.12 508.35 1678.83 508.35 L 916.14 508.35 Z" fill="#ffffff" fill-rule="nonzero" node-id="76" stroke="none" target-height="501.0403" target-width="789.1351" target-x="902.915" target-y="7.30469"></path><path d="M 1678.83 14.61 C 1682.04 14.61 1684.75 17.32 1684.75 20.53 L 1684.75 495.12 C 1684.75 498.33 1682.04 501.04 1678.83 501.04 L 916.14 501.04 C 912.93 501.04 910.22 498.33 910.22 495.12 L 910.22 20.53 C 910.22 17.32 912.93 14.61 916.14 14.61 L 1678.83 14.61 Z M 1678.83 0.00 L 916.14 0.00 C 904.85 0.00 895.61 9.24 895.61 20.53 L 895.61 495.12 C 895.61 506.42 904.85 515.65 916.14 515.65 L 1678.83 515.65 C 1690.12 515.65 1699.36 506.42 1699.36 495.12 L 1699.36 20.53 C 1699.36 9.24 1690.12 0.00 1678.83 0.00 Z" fill="#000000" fill-rule="nonzero" node-id="78" stroke="none" target-height="515.654" target-width="803.753" target-x="895.607" target-y="0"></path><path d="M 942.58 53.24 C 950.08 53.24 956.15 47.16 956.15 39.67 C 956.15 32.17 950.08 26.10 942.58 26.10 C 935.09 26.10 929.01 32.17 929.01 39.67 C 929.01 47.16 935.09 53.24 942.58 53.24 Z" fill="#ff3f08" fill-rule="nonzero" node-id="80" stroke="none" target-height="27.139702" target-width="27.140015" target-x="929.011" target-y="26.0957"></path><path d="M 987.47 53.24 C 994.96 53.24 1001.04 47.16 1001.04 39.67 C 1001.04 32.17 994.96 26.10 987.47 26.10 C 979.97 26.10 973.90 32.17 973.90 39.67 C 973.90 47.16 979.97 53.24 987.47 53.24 Z" fill="#ff3f08" fill-rule="nonzero" node-id="82" stroke="none" target-height="27.139702" target-width="27.143982" target-x="973.896" target-y="26.0957"></path><path d="M 1032.35 53.24 C 1039.84 53.24 1045.92 47.16 1045.92 39.67 C 1045.92 32.17 1039.84 26.10 1032.35 26.10 C 1024.86 26.10 1018.78 32.17 1018.78 39.67 C 1018.78 47.16 1024.86 53.24 1032.35 53.24 Z" fill="#ff3f08" fill-rule="nonzero" node-id="84" stroke="none" target-height="27.139702" target-width="27.140015" target-x="1018.78" target-y="26.0957"></path><path d="M 1692.05 67.85 L 906.05 67.85 L 906.05 82.46 L 1692.05 82.46 L 1692.05 67.85 Z" fill="#ffffff" fill-rule="nonzero" node-id="86" stroke="none" target-height="14.613701" target-width="786.00305" target-x="906.047" target-y="67.8496"></path><path d="M 1692.05 67.85 L 906.05 67.85 L 906.05 82.46 L 1692.05 82.46 L 1692.05 67.85 Z" fill="#000000" fill-rule="nonzero" node-id="88" stroke="none" target-height="14.613701" target-width="786.00305" target-x="906.047" target-y="67.8496"></path><path d="M 1013.56 110.65 C 1018.73 110.65 1022.96 114.87 1022.96 120.04 L 1022.96 438.41 C 1022.96 443.58 1018.73 447.80 1013.56 447.80 C 1008.39 447.80 1004.17 443.58 1004.17 438.41 L 1004.17 120.04 C 1004.17 114.87 1008.39 110.65 1013.56 110.65 Z" fill="#d2e9fe" fill-rule="nonzero" node-id="90" stroke="none" target-height="337.158" target-width="18.79004" target-x="1004.17" target-y="110.646"></path><path d="M 991.64 217.12 L 1033.39 217.12 C 1040.28 217.12 1045.92 222.75 1045.92 229.64 L 1045.92 349.68 C 1045.92 356.57 1040.28 362.21 1033.39 362.21 L 991.64 362.21 C 984.75 362.21 979.12 356.57 979.12 349.68 L 979.12 229.64 C 979.12 222.75 984.75 217.12 991.64 217.12 Z" fill="#315bf4" fill-rule="nonzero" node-id="92" stroke="none" target-height="145.09299" target-width="66.80505" target-x="979.115" target-y="217.117"></path><path d="M 1149.26 110.65 C 1154.43 110.65 1158.65 114.87 1158.65 120.04 L 1158.65 438.41 C 1158.65 443.58 1154.43 447.80 1149.26 447.80 C 1144.09 447.80 1139.87 443.58 1139.87 438.41 L 1139.87 120.04 C 1139.87 114.87 1144.09 110.65 1149.26 110.65 Z" fill="#d2e9fe" fill-rule="nonzero" node-id="94" stroke="none" target-height="337.158" target-width="18.78003" target-x="1139.87" target-y="110.646"></path><path d="M 1127.34 154.49 L 1169.09 154.49 C 1175.98 154.49 1181.62 160.12 1181.62 167.01 L 1181.62 287.05 C 1181.62 293.94 1175.98 299.58 1169.09 299.58 L 1127.34 299.58 C 1120.45 299.58 1114.81 293.94 1114.81 287.05 L 1114.81 167.01 C 1114.81 160.12 1120.45 154.49 1127.34 154.49 Z" fill="#315bf4" fill-rule="nonzero" node-id="96" stroke="none" target-height="145.09302" target-width="66.80994" target-x="1114.81" target-y="154.486"></path><path d="M 1292.27 110.65 C 1297.43 110.65 1301.66 114.87 1301.66 120.04 L 1301.66 438.41 C 1301.66 443.58 1297.43 447.80 1292.27 447.80 C 1287.10 447.80 1282.87 443.58 1282.87 438.41 L 1282.87 120.04 C 1282.87 114.87 1287.10 110.65 1292.27 110.65 Z" fill="#d2e9fe" fill-rule="nonzero" node-id="98" stroke="none" target-height="337.158" target-width="18.79004" target-x="1282.87" target-y="110.646"></path><path d="M 1270.34 221.29 L 1312.10 221.29 C 1318.99 221.29 1324.62 226.93 1324.62 233.82 L 1324.62 353.86 C 1324.62 360.75 1318.99 366.39 1312.10 366.39 L 1270.34 366.39 C 1263.46 366.39 1257.82 360.75 1257.82 353.86 L 1257.82 233.82 C 1257.82 226.93 1263.46 221.29 1270.34 221.29 Z" fill="#315bf4" fill-rule="nonzero" node-id="100" stroke="none" target-height="145.09299" target-width="66.80005" target-x="1257.82" target-y="221.293"></path><path d="M 1434.23 110.65 C 1439.39 110.65 1443.62 114.87 1443.62 120.04 L 1443.62 438.41 C 1443.62 443.58 1439.39 447.80 1434.23 447.80 C 1429.06 447.80 1424.83 443.58 1424.83 438.41 L 1424.83 120.04 C 1424.83 114.87 1429.06 110.65 1434.23 110.65 Z" fill="#d2e9fe" fill-rule="nonzero" node-id="102" stroke="none" target-height="337.158" target-width="18.79004" target-x="1424.83" target-y="110.646"></path><path d="M 1412.31 262.00 L 1454.06 262.00 C 1460.95 262.00 1466.59 267.64 1466.59 274.53 L 1466.59 394.57 C 1466.59 401.46 1460.95 407.10 1454.06 407.10 L 1412.31 407.10 C 1405.42 407.10 1399.78 401.46 1399.78 394.57 L 1399.78 274.53 C 1399.78 267.64 1405.42 262.00 1412.31 262.00 Z" fill="#315bf4" fill-rule="nonzero" node-id="104" stroke="none" target-height="145.09299" target-width="66.80994" target-x="1399.78" target-y="262.002"></path><path d="M 1575.14 110.65 C 1580.31 110.65 1584.54 114.87 1584.54 120.04 L 1584.54 438.41 C 1584.54 443.58 1580.31 447.80 1575.14 447.80 C 1569.98 447.80 1565.75 443.58 1565.75 438.41 L 1565.75 120.04 C 1565.75 114.87 1569.98 110.65 1575.14 110.65 Z" fill="#d2e9fe" fill-rule="nonzero" node-id="106" stroke="none" target-height="337.158" target-width="18.79004" target-x="1565.75" target-y="110.646"></path><path d="M 1553.22 188.93 L 1594.98 188.93 C 1601.87 188.93 1607.50 194.57 1607.50 201.46 L 1607.50 321.50 C 1607.50 328.39 1601.87 334.03 1594.98 334.03 L 1553.22 334.03 C 1546.33 334.03 1540.70 328.39 1540.70 321.50 L 1540.70 201.46 C 1540.70 194.57 1546.33 188.93 1553.22 188.93 Z" fill="#315bf4" fill-rule="nonzero" node-id="108" stroke="none" target-height="145.092" target-width="66.80005" target-x="1540.7" target-y="188.934"></path><path d="M 38.10 498.95 L 746.86 498.95 C 767.82 498.95 784.96 516.10 784.96 537.05 L 784.96 985.90 C 784.96 1006.85 767.82 1024.00 746.86 1024.00 L 38.10 1024.00 C 17.14 1024.00 0.00 1006.85 0.00 985.90 L 0.00 537.05 C 0.00 516.10 17.14 498.95 38.10 498.95 Z" fill="#d2e9fe" fill-rule="nonzero" node-id="110" stroke="none" target-height="525.049" target-width="784.962" target-x="0" target-y="498.951"></path><path d="M 85.59 572.02 L 469.73 572.02 C 476.61 572.02 482.25 577.66 482.25 584.55 L 482.25 939.45 C 482.25 946.34 476.61 951.98 469.73 951.98 L 85.59 951.98 C 78.71 951.98 73.07 946.34 73.07 939.45 L 73.07 584.55 C 73.07 577.65 78.71 572.02 85.59 572.02 Z" fill="#ffffff" fill-rule="nonzero" node-id="112" stroke="none" target-height="379.95496" target-width="409.18262" target-x="73.0684" target-y="572.02"></path><path d="M 374.74 719.20 C 401.83 719.20 423.80 697.23 423.80 670.14 C 423.80 643.04 401.83 621.08 374.74 621.08 C 347.64 621.08 325.68 643.04 325.68 670.14 C 325.68 697.23 347.64 719.20 374.74 719.20 Z" fill="#ff3f08" fill-rule="nonzero" node-id="114" stroke="none" target-height="98.119995" target-width="98.119995" target-x="325.676" target-y="621.078"></path><path d="M 73.07 878.91 L 206.68 778.70 L 277.66 851.77 L 407.10 747.38 L 483.30 810.01 L 482.25 951.98 L 73.07 951.98 L 73.07 878.91 Z" fill="#398cff" fill-rule="nonzero" node-id="116" stroke="none" target-height="204.591" target-width="410.22662" target-x="73.0684" target-y="747.385"></path><path d="M 540.71 596.03 L 711.89 596.03 C 719.36 596.03 725.46 602.14 725.46 609.60 C 725.46 617.06 719.36 623.17 711.89 623.17 L 540.71 623.17 C 533.24 623.17 527.13 617.06 527.13 609.60 C 527.13 602.13 533.24 596.03 540.71 596.03 Z" fill="#ffffff" fill-rule="nonzero" node-id="118" stroke="none" target-height="27.140015" target-width="198.32898" target-x="527.135" target-y="596.029"></path><path d="M 540.71 647.18 L 684.75 647.18 C 692.22 647.18 698.32 653.28 698.32 660.75 C 698.32 668.21 692.22 674.32 684.75 674.32 L 540.71 674.32 C 533.24 674.32 527.13 668.21 527.13 660.75 C 527.13 653.28 533.24 647.18 540.71 647.18 Z" fill="#315bf4" fill-rule="nonzero" node-id="120" stroke="none" target-height="27.138977" target-width="171.18896" target-x="527.135" target-y="647.176"></path><path d="M 547.49 802.71 L 707.20 802.71 C 722.41 802.71 734.86 815.15 734.86 830.37 C 734.86 845.58 722.41 858.03 707.20 858.03 L 547.49 858.03 C 532.28 858.03 519.83 845.58 519.83 830.37 C 519.83 815.15 532.28 802.71 547.49 802.71 Z" fill="#ffffff" fill-rule="nonzero" node-id="122" stroke="none" target-height="55.32306" target-width="215.02899" target-x="519.829" target-y="802.707"></path><path d="M 540.71 699.37 L 658.66 699.37 C 666.12 699.37 672.23 705.47 672.23 712.94 C 672.23 720.40 666.12 726.51 658.66 726.51 L 540.71 726.51 C 533.24 726.51 527.13 720.40 527.13 712.94 C 527.13 705.47 533.24 699.37 540.71 699.37 Z" fill="#ffffff" fill-rule="nonzero" node-id="124" stroke="none" target-height="27.140015" target-width="145.09302" target-x="527.135" target-y="699.367"></path><path d="M 540.71 750.52 L 613.77 750.52 C 621.24 750.52 627.34 756.62 627.34 764.09 C 627.34 771.55 621.24 777.65 613.77 777.65 L 540.71 777.65 C 533.24 777.65 527.13 771.55 527.13 764.09 C 527.13 756.62 533.24 750.52 540.71 750.52 Z" fill="#315bf4" fill-rule="nonzero" node-id="126" stroke="none" target-height="27.139038" target-width="100.20801" target-x="527.135" target-y="750.516"></path><path d="M 650.31 945.71 C 656.65 945.71 661.79 940.57 661.79 934.23 C 661.79 927.89 656.65 922.75 650.31 922.75 C 643.97 922.75 638.83 927.89 638.83 934.23 C 638.83 940.57 643.97 945.71 650.31 945.71 Z" fill="#ff3f08" fill-rule="nonzero" node-id="128" stroke="none" target-height="22.96399" target-width="22.96399" target-x="638.826" target-y="922.748"></path><path d="M 698.32 945.71 C 704.67 945.71 709.81 940.57 709.81 934.23 C 709.81 927.89 704.67 922.75 698.32 922.75 C 691.98 922.75 686.84 927.89 686.84 934.23 C 686.84 940.57 691.98 945.71 698.32 945.71 Z" fill="#ff3f08" fill-rule="nonzero" node-id="130" stroke="none" target-height="22.96399" target-width="22.96405" target-x="686.842" target-y="922.748"></path><path d="M 1624.20 973.90 C 1676.66 973.90 1719.19 931.37 1719.19 878.91 C 1719.19 826.45 1676.66 783.92 1624.20 783.92 C 1571.74 783.92 1529.22 826.45 1529.22 878.91 C 1529.22 931.37 1571.74 973.90 1624.20 973.90 Z" fill="#d2e9fe" fill-rule="nonzero" node-id="132" stroke="none" target-height="189.97797" target-width="189.96997" target-x="1529.22" target-y="783.918"></path><path d="M 1633.60 827.76 L 1616.90 827.76 L 1616.90 947.80 L 1633.60 947.80 L 1633.60 827.76 Z" fill="#398cff" fill-rule="nonzero" node-id="134" stroke="none" target-height="120.041016" target-width="16.699951" target-x="1616.9" target-y="827.76"></path><path d="M 1569.92 884.13 L 1624.20 822.54" fill="none" node-id="136" stroke="#398cff" stroke-linecap="round" stroke-width="14" target-height="61.586" target-width="54.279907" target-x="1569.92" target-y="822.541"></path><path d="M 1679.53 883.08 L 1625.25 821.50" fill="none" node-id="138" stroke="#398cff" stroke-linecap="round" stroke-width="14" target-height="61.586" target-width="54.28003" target-x="1625.25" target-y="821.496"></path></svg>
